HIERARCHY
ROOT hip
{
  OFFSET 0 0 0
  CHANNELS 6 Xposition Yposition Zposition Zrotation Yrotation Xrotation
  JOINT abdomen
  {
    OFFSET 0 20.6881 -0.73152
    CHANNELS 3 Zrotation Xrotation Yrotation
    JOINT chest
    {
      OFFSET 0 11.7043 -0.48768
      CHANNELS 3 Zrotation Xrotation Yrotation
      JOINT neck
      {
        OFFSET 0 22.1894 -2.19456
        CHANNELS 3 Zrotation Xrotation Yrotation
        JOINT head
        {
          OFFSET -0.24384 7.07133 1.2192
          CHANNELS 3 Zrotation Xrotation Yrotation
          JOINT leftEye
          {
            OFFSET 4.14528 8.04674 8.04672
            CHANNELS 3 Zrotation Xrotation Yrotation
            End Site
            {
              OFFSET 1 0 0
            }
          }
          JOINT rightEye
          {
            OFFSET -3.6576 8.04674 8.04672
            CHANNELS 3 Zrotation Xrotation Yrotation
            End Site
            {
              OFFSET 1 0 0
            }
          }
        }
      }
      JOINT rCollar
      {
        OFFSET -2.68224 19.2634 -4.8768
        CHANNELS 3 Zrotation Xrotation Yrotation
        JOINT rShldr
        {
          OFFSET -8.77824 -1.95073 1.46304
          CHANNELS 3 Zrotation Xrotation Yrotation
          JOINT rForeArm
          {
            OFFSET -28.1742 -1.7115 0.48768
            CHANNELS 3 Zrotation Xrotation Yrotation
            JOINT rHand
            {
              OFFSET -22.5879 0.773209 7.07136
              CHANNELS 3 Zrotation Xrotation Yrotation
              JOINT rThumb1
              {
                OFFSET -1.2192 -0.487915 3.41376
                CHANNELS 3 Zrotation Xrotation Yrotation
                JOINT rThumb2
                {
                  OFFSET -3.37035 -0.52449 3.41376
                  CHANNELS 3 Zrotation Xrotation Yrotation
                  End Site
                  {
                    OFFSET -1.78271 -1.18214 1.43049
                  }
                }
              }
              JOINT rIndex1
              {
                OFFSET -7.75947 0.938293 5.60832
                CHANNELS 3 Zrotation Xrotation Yrotation
                JOINT rIndex2
                {
                  OFFSET -2.54057 -0.884171 1.56538
                  CHANNELS 3 Zrotation Xrotation Yrotation
                  End Site
                  {
                    OFFSET -1.62519 -0.234802 1.16502
                  }
                }
              }
              JOINT rMid1
              {
                OFFSET -8.24714 1.18213 3.41376
                CHANNELS 3 Zrotation Xrotation Yrotation
                JOINT rMid2
                {
                  OFFSET -3.10165 -0.590103 1.0647
                  CHANNELS 3 Zrotation Xrotation Yrotation
                  End Site
                  {
                    OFFSET -2.48547 -0.328903 0.83742
                  }
                }
              }
              JOINT rRing1
              {
                OFFSET -8.82822 0.546677 1.51678
                CHANNELS 3 Zrotation Xrotation Yrotation
                JOINT rRing2
                {
                  OFFSET -2.60934 -0.819778 -0.0198488
                  CHANNELS 3 Zrotation Xrotation Yrotation
                  End Site
                  {
                    OFFSET -2.33842 -0.294052 0.168128
                  }
                }
              }
              JOINT rPinky1
              {
                OFFSET -8.27202 -0.0477905 -0.4584
                CHANNELS 3 Zrotation Xrotation Yrotation
                JOINT rPinky2
                {
                  OFFSET -1.82734 -0.647385 -0.700984
                  CHANNELS 3 Zrotation Xrotation Yrotation
                  End Site
                  {
                    OFFSET -1.69225 -0.51767 -0.607171
                  }
                }
              }
            }
          }
        }
      }
      JOINT lCollar
      {
        OFFSET 2.68224 19.2634 -4.8768
        CHANNELS 3 Zrotation Xrotation Yrotation
        JOINT lShldr
        {
          OFFSET 8.77824 -1.95073 1.46304
          CHANNELS 3 Zrotation Xrotation Yrotation
          JOINT lForeArm
          {
            OFFSET 28.1742 -1.7115 0.48768
            CHANNELS 3 Zrotation Xrotation Yrotation
            JOINT lHand
            {
              OFFSET 22.5879 0.773209 7.07136
              CHANNELS 3 Zrotation Xrotation Yrotation
              JOINT lThumb1
              {
                OFFSET 1.2192 -0.487915 3.41376
                CHANNELS 3 Zrotation Xrotation Yrotation
                JOINT lThumb2
                {
                  OFFSET 3.37035 -0.52449 3.41376
                  CHANNELS 3 Zrotation Xrotation Yrotation
                  End Site
                  {
                    OFFSET 1.78271 -1.18214 1.43049
                  }
                }
              }
              JOINT lIndex1
              {
                OFFSET 7.75947 0.938293 5.60832
                CHANNELS 3 Zrotation Xrotation Yrotation
                JOINT lIndex2
                {
                  OFFSET 2.54057 -0.884171 1.56538
                  CHANNELS 3 Zrotation Xrotation Yrotation
                  End Site
                  {
                    OFFSET 1.62519 -0.234802 1.16502
                  }
                }
              }
              JOINT lMid1
              {
                OFFSET 8.24714 1.18213 3.41376
                CHANNELS 3 Zrotation Xrotation Yrotation
                JOINT lMid2
                {
                  OFFSET 3.10165 -0.590103 1.0647
                  CHANNELS 3 Zrotation Xrotation Yrotation
                  End Site
                  {
                    OFFSET 2.48547 -0.328903 0.83742
                  }
                }
              }
              JOINT lRing1
              {
                OFFSET 8.82822 0.546677 1.51678
                CHANNELS 3 Zrotation Xrotation Yrotation
                JOINT lRing2
                {
                  OFFSET 2.60934 -0.819778 -0.0198488
                  CHANNELS 3 Zrotation Xrotation Yrotation
                  End Site
                  {
                    OFFSET 2.33842 -0.294052 0.168128
                  }
                }
              }
              JOINT lPinky1
              {
                OFFSET 8.27202 -0.0477905 -0.4584
                CHANNELS 3 Zrotation Xrotation Yrotation
                JOINT lPinky2
                {
                  OFFSET 1.82734 -0.647385 -0.700984
                  CHANNELS 3 Zrotation Xrotation Yrotation
                  End Site
                  {
                    OFFSET 1.69225 -0.51767 -0.607171
                  }
                }
              }
            }
          }
        }
      }
    }
  }
  JOINT rButtock
  {
    OFFSET -8.77824 4.35084 1.2192
    CHANNELS 3 Zrotation Xrotation Yrotation
    JOINT rThigh
    {
      OFFSET 0 -1.70687 -2.19456
      CHANNELS 3 Zrotation Xrotation Yrotation
      JOINT rShin
      {
        OFFSET 0 -36.8199 0.73152
        CHANNELS 3 Zrotation Xrotation Yrotation
        JOINT rFoot
        {
          OFFSET 0.73152 -45.1104 -5.12064
          CHANNELS 3 Zrotation Xrotation Yrotation
          End Site
          {
            OFFSET -1.1221 -3.69964 12.103
          }
        }
      }
    }
  }
  JOINT lButtock
  {
    OFFSET 8.77824 4.35084 1.2192
    CHANNELS 3 Zrotation Xrotation Yrotation
    JOINT lThigh
    {
      OFFSET 0 -1.70687 -2.19456
      CHANNELS 3 Zrotation Xrotation Yrotation
      JOINT lShin
      {
        OFFSET 0 -36.8199 0.73152
        CHANNELS 3 Zrotation Xrotation Yrotation
        JOINT lFoot
        {
          OFFSET -0.73152 -45.1104 -5.12064
          CHANNELS 3 Zrotation Xrotation Yrotation
          End Site
          {
            OFFSET 1.1221 -3.69964 12.103
          }
        }
      }
    }
  }
}
MOTION
Frames:	4
Frame Time:	0.00833333
8.47001 78.6213 -104.254 2.044 10.1973 7.3313 -2.07677 19.2227 -7.96366 6.72822 -9.11356 -1.74538 9.43321 -5.87981 3.967 -12.3091 -6.88596 3.58328 -0.0 0.0 0.0 -0.0 0.0 0.0 -9.42521e-15 -2.31788e-13 -6.58226e-14 80.1006 31.4182 -12.1291 -19.7077 -12.6505 37.9708 -0.0484853 -6.27348 -0.885252 2.44867e-11 -1.56005e-09 4.88464e-11 4.9353e-11 -2.70002e-09 8.83193e-11 2.44942e-11 -1.56006e-09 4.8839e-11 7.73091 5.47488 0.417314 2.44895e-11 -1.56006e-09 4.88529e-11 2.90554 0.965183 0.102902 2.44926e-11 -1.56006e-09 4.88568e-11 10.2786 0.731801 0.0259123 2.44773e-11 -1.56006e-09 4.88655e-11 2.22167 -0.733487 -0.20892 -9.56251e-15 -2.31779e-13 -6.59841e-14 -58.1592 29.2928 -26.6075 22.8736 -17.1343 -46.1898 0.00784772 -2.5476 0.358275 -2.38528e-09 -4.04213e-09 1.79723e-09 -4.1327e-09 -7.01697e-09 3.10699e-09 -2.38528e-09 -4.04212e-09 1.79723e-09 -7.73091 5.47488 -0.417314 -2.38528e-09 -4.04213e-09 1.79723e-09 -2.90554 0.965183 -0.102902 -2.38528e-09 -4.04212e-09 1.79723e-09 -10.2786 0.731801 -0.0259123 -2.38527e-09 -4.04212e-09 1.79722e-09 -2.22167 -0.733487 0.20892 -2.03217e-16 0.0 -3.88251e-19 -12.6997 -57.5389 -10.3611 -1.01605 57.4847 0.974059 0.361779 10.4201 -19.0315 2.03217e-16 0.0 3.88251e-19 -3.83777 -18.5382 5.03558 0.372335 44.8984 -1.2168 7.89724 -14.2 21.4553
8.44591 78.6238 -103.476 2.3335 10.425 7.6194 -2.40415 18.7566 -8.143 6.77155 -9.06697 -1.8104 9.41006 -5.95884 3.95526 -12.2219 -6.75688 3.57513 -0.0 0.0 0.0 -0.0 0.0 0.0 -1.22816e-14 -1.12566e-13 -6.94015e-14 80.1615 31.9971 -12.6129 -20.0617 -13.0892 38.8328 -0.0500844 -6.37502 -0.8997 1.47858e-10 -1.16339e-09 -2.24271e-10 2.61915e-10 -2.01562e-09 -3.85168e-10 1.4786e-10 -1.1634e-09 -2.24281e-10 7.73091 5.47488 0.417314 1.47855e-10 -1.1634e-09 -2.24262e-10 2.90554 0.965183 0.102902 1.47859e-10 -1.1634e-09 -2.24263e-10 10.2786 0.731801 0.0259123 1.47845e-10 -1.16339e-09 -2.24253e-10 2.22167 -0.733487 -0.20892 -1.24862e-14 -1.12559e-13 -6.95878e-14 -57.6297 29.4157 -26.387 23.256 -17.7724 -47.316 0.00908416 -2.73134 0.384155 -1.40282e-09 -1.38619e-09 1.5771e-09 -2.4327e-09 -2.42202e-09 2.72661e-09 -1.40282e-09 -1.38619e-09 1.5771e-09 -7.73091 5.47488 -0.417314 -1.40282e-09 -1.3862e-09 1.5771e-09 -2.90554 0.965183 -0.102902 -1.40282e-09 -1.38619e-09 1.5771e-09 -10.2786 0.731801 -0.0259123 -1.40282e-09 -1.38619e-09 1.57709e-09 -2.22167 -0.733487 0.20892 -2.03217e-16 0.0 -3.88251e-19 -13.5781 -57.4646 -11.149 -1.05048 58.1605 1.03601 0.181582 10.0213 -18.5666 2.03217e-16 0.0 3.88251e-19 -3.99014 -17.5442 5.00473 0.342359 43.769 -1.19616 7.94416 -14.4912 21.4053
8.42673 78.6656 -102.674 2.629 10.6469 7.9188 -2.67117 18.28 -8.33302 6.79583 -9.03308 -1.87632 9.38684 -6.01974 3.94097 -12.1571 -6.66679 3.55934 -0.0 0.0 0.0 -0.0 0.0 0.0 -1.44949e-14 3.17628e-15 -3.56818e-14 80.223 32.5276 -13.1575 -20.4209 -13.5504 39.7116 -0.0512632 -6.44786 -0.910071 1.54286e-10 -6.54914e-10 -2.38198e-10 2.70697e-10 -1.13578e-09 -4.10873e-10 1.54285e-10 -6.54915e-10 -2.38211e-10 7.73091 5.47488 0.417314 1.54281e-10 -6.54917e-10 -2.38189e-10 2.90554 0.965183 0.102902 1.54284e-10 -6.54918e-10 -2.38192e-10 10.2786 0.731801 0.0259123 1.54272e-10 -6.54914e-10 -2.38182e-10 2.22167 -0.733487 -0.20892 -1.47275e-14 3.18288e-15 -3.58806e-14 -57.1523 29.4847 -26.0467 23.601 -18.3699 -48.3711 0.0099035 -2.84016 0.39949 -4.86038e-10 3.84861e-10 9.82413e-10 -8.45234e-10 6.48677e-10 1.69874e-09 -4.86041e-10 3.84867e-10 9.82419e-10 -7.73091 5.47488 -0.417314 -4.86042e-10 3.84852e-10 9.82416e-10 -2.90554 0.965183 -0.102902 -4.86043e-10 3.84868e-10 9.82416e-10 -10.2786 0.731801 -0.0259123 -4.86035e-10 3.84863e-10 9.82407e-10 -2.22167 -0.733487 0.20892 -2.03217e-16 0.0 -3.88251e-19 -14.3968 -57.3045 -11.9459 -1.08103 58.7437 1.09316 0.00971283 9.6118 -18.1293 2.03217e-16 0.0 3.88251e-19 -4.14844 -16.5539 4.89905 0.313398 42.6112 -1.17174 7.91511 -14.5667 21.36
8.40254 78.7515 -101.849 2.8928 10.8604 8.2182 -2.88239 17.786 -8.55505 6.80182 -9.0178 -1.94867 9.37 -6.04899 3.92554 -12.1326 -6.6313 3.53564 -0.0 0.0 0.0 -0.0 0.0 0.0 -1.89206e-14 1.37978e-13 7.67705e-14 80.2851 33.0155 -13.7783 -20.7909 -14.0428 40.6247 -0.051634 -6.46972 -0.913185 -3.8004e-11 1.52591e-10 2.33275e-10 -6.75772e-11 2.65185e-10 4.01779e-10 -3.80036e-11 1.52591e-10 2.33261e-10 7.73091 5.47488 0.417314 -3.8009e-11 1.52588e-10 2.33284e-10 2.90554 0.965183 0.102902 -3.8006e-11 1.52587e-10 2.3328e-10 10.2786 0.731801 0.0259123 -3.8017e-11 1.5259e-10 2.33289e-10 2.22167 -0.733487 -0.20892 -1.91223e-14 1.37984e-13 7.6576e-14 -56.7225 29.4858 -25.5758 23.9184 -18.9444 -49.3523 0.00976727 -2.81529 0.395987 5.004e-10 8.40017e-10 -4.58784e-10 8.65096e-10 1.45706e-09 -7.9243e-10 5.00398e-10 8.40025e-10 -4.58777e-10 -7.73091 5.47488 -0.417314 5.00397e-10 8.40011e-10 -4.58781e-10 -2.90554 0.965183 -0.102902 5.00394e-10 8.40025e-10 -4.5878e-10 -10.2786 0.731801 -0.0259123 5.00404e-10 8.40021e-10 -4.58789e-10 -2.22167 -0.733487 0.20892 -2.03217e-16 0.0 -3.88251e-19 -15.1936 -57.0529 -12.7869 -1.10729 59.2537 1.1461 -0.166104 9.15499 -17.7221 2.03217e-16 0.0 3.88251e-19 -4.33963 -15.5545 4.6905 0.285645 41.3938 -1.14264 7.82135 -14.4095 21.3663
